# xmcd
#
# Track frame offsets:
#	150
#	18804
#	35011
#	49899
#	64272
#	109136
#	126799
#	144748
#	169405
#	185038
#	198052
#	211113
#	226813
#
# Disc length: 3231 seconds
#
# Revision: 1
# Processed by: cddbd v1.5.2PL0 Copyright (c) Steve Scherf et al.
# Submitted via: audiograbber 1.83.01
#
DISCID=b90c9d0d
DTITLE=Richard and Linda Thompson - I Want to See the Bright Lights Tonight
DYEAR=2018
DGENRE=Country
TTITLE0=Down Where the Drunkards Roll
TTITLE1=Has He Got a Friend for Me
TTITLE2=I Want to See the Bright Lights Tonight (Live)
TTITLE3=I Want to See the Bright Lights Tonight
TTITLE4=The Calvary Cross (Live)
TTITLE5=The Calvary Cross
TTITLE6=The End of the Rainbow
TTITLE7=The Great Valerio
TTITLE8=The Little Beggar Girl
TTITLE9=Together Again (Live)
TTITLE10=We Sing Hallelujah
TTITLE11=When I Get to the Border
TTITLE12=Withered and Died
EXTD=
EXTT0=
EXTT1=
EXTT2=
EXTT3=
EXTT4=
EXTT5=
EXTT6=
EXTT7=
EXTT8=
EXTT9=
EXTT10=
EXTT11=
EXTT12=
PLAYORDER=
